<?xml version="1.0" standalone="no"?>
<svg xmlns:xlink="http://www.w3.org/1999/xlink" id="wave" style="transform:rotate(180deg); transition: 0.3s" viewBox="0 0 1440 220" version="1.1" xmlns="http://www.w3.org/2000/svg"><defs><linearGradient id="sw-gradient-0" x1="0" x2="0" y1="1" y2="0"><stop stop-color="rgba(4, 157, 217, 1)" offset="0%"/><stop stop-color="rgba(4, 157, 217, 1)" offset="100%"/></linearGradient></defs><path style="transform:translate(0, 0px); opacity:1" fill="url(#sw-gradient-0)" d="M0,66L34.3,77C68.6,88,137,110,206,99C274.3,88,343,44,411,25.7C480,7,549,15,617,18.3C685.7,22,754,22,823,29.3C891.4,37,960,51,1029,58.7C1097.1,66,1166,66,1234,73.3C1302.9,81,1371,95,1440,113.7C1508.6,132,1577,154,1646,168.7C1714.3,183,1783,191,1851,161.3C1920,132,1989,66,2057,51.3C2125.7,37,2194,73,2263,91.7C2331.4,110,2400,110,2469,102.7C2537.1,95,2606,81,2674,95.3C2742.9,110,2811,154,2880,150.3C2948.6,147,3017,95,3086,80.7C3154.3,66,3223,88,3291,113.7C3360,139,3429,169,3497,161.3C3565.7,154,3634,110,3703,80.7C3771.4,51,3840,37,3909,47.7C3977.1,59,4046,95,4114,102.7C4182.9,110,4251,88,4320,69.7C4388.6,51,4457,37,4526,47.7C4594.3,59,4663,95,4731,117.3C4800,139,4869,147,4903,150.3L4937.1,154L4937.1,220L4902.9,220C4868.6,220,4800,220,4731,220C4662.9,220,4594,220,4526,220C4457.1,220,4389,220,4320,220C4251.4,220,4183,220,4114,220C4045.7,220,3977,220,3909,220C3840,220,3771,220,3703,220C3634.3,220,3566,220,3497,220C3428.6,220,3360,220,3291,220C3222.9,220,3154,220,3086,220C3017.1,220,2949,220,2880,220C2811.4,220,2743,220,2674,220C2605.7,220,2537,220,2469,220C2400,220,2331,220,2263,220C2194.3,220,2126,220,2057,220C1988.6,220,1920,220,1851,220C1782.9,220,1714,220,1646,220C1577.1,220,1509,220,1440,220C1371.4,220,1303,220,1234,220C1165.7,220,1097,220,1029,220C960,220,891,220,823,220C754.3,220,686,220,617,220C548.6,220,480,220,411,220C342.9,220,274,220,206,220C137.1,220,69,220,34,220L0,220Z"/></svg>